#!OML:ASF H:\BreakDance\Project 1\Capture day 1\Session 1\Male.ASF
:FULLY-SPECIFIED
:DEGREES
188
root 17.3363 16.0005 0.390568 -196.663 -87.1555 200.645
lowerback -9.67308 0.0617427 1.18983
upperback 2.1522 -0.0563892 -0.14193
thorax 7.71057 0.0308816 -0.829267
lowerneck -4.60539 0.643145 -3.06681
upperneck 13.2455 0.825758 1.33734
head 4.70693 0.26775 0.955618
rclavicle 7.95139e-016 2.98177e-015
rhumerus -28.893 3.26997 -85.8007
rradius 42.6113
rwrist 4.57963
rhand -32.8294 -38.2402
rfingers 7.12502
rthumb -6.04953 -68.1338
lclavicle 7.95139e-016 2.98177e-015
lhumerus -28.2387 0.787753 80.6244
lradius 43.7354
lwrist -12.6204
lhand -40.9777 -40.1498
lfingers 7.12502
lthumb -13.9101 -10.635
rfemur -20.0498 8.50156 11.3902
rtibia 42.2479
rfoot -29.565 -21.4579
rtoes -4.65884
lfemur -18.1416 -1.80441 -8.50073
ltibia 41.0258
lfoot -33.7342 22.5908
ltoes -28.2409
189
root 17.3368 16.0003 0.389248 -196.493 -87.1177 200.465
lowerback -9.66689 0.0657086 1.18649
upperback 2.16322 -0.0516581 -0.128778
thorax 7.71893 0.0327953 -0.812741
lowerneck -4.60103 0.654295 -3.04193
upperneck 13.2381 0.843681 1.29656
head 4.70391 0.275407 0.939838
rclavicle -7.442e-015 5.66536e-015
rhumerus -28.871 3.3078 -85.7795
rradius 42.6074
rwrist 4.54407
rhand -32.8186 -38.3264
rfingers 7.12502
rthumb -6.03906 -68.2204
lclavicle -7.442e-015 5.66536e-015
lhumerus -28.2415 0.770768 80.6394
lradius 43.7519
lwrist -12.5882
lhand -40.9727 -40.1525
lfingers 7.12502
lthumb -13.9053 -10.6374
rfemur -20.0544 8.56959 11.4024
rtibia 42.2501
rfoot -29.5634 -21.4873
rtoes -4.63268
lfemur -18.1278 -1.76412 -8.48777
ltibia 41.0254
lfoot -33.7212 22.5814
ltoes -28.2746
190
root 17.3373 16.0004 0.388069 -196.149 -87.0894 200.118
lowerback -9.66426 0.0663384 1.17589
upperback 2.16917 -0.0502969 -0.118116
thorax 7.72381 0.0327487 -0.795291
lowerneck -4.59669 0.671703 -3.03249
upperneck 13.2378 0.868753 1.27574
head 4.70269 0.286865 0.933168
rclavicle -4.98825e-015 2.38542e-015
rhumerus -28.8725 3.35874 -85.7578
rradius 42.6274
rwrist 4.49791
rhand -32.8511 -38.4405
rfingers 7.12502
rthumb -6.07045 -68.3335
lclavicle -4.98825e-015 2.38542e-015
lhumerus -28.2408 0.760229 80.6539
lradius 43.76
lwrist -12.5282
lhand -40.9393 -40.1636
lfingers 7.12502
lthumb -13.8732 -10.6463
rfemur -20.0667 8.62143 11.399
rtibia 42.253
rfoot -29.5623 -21.5077
rtoes -4.57673
lfemur -18.119 -1.73746 -8.48916
ltibia 41.0213
lfoot -33.7181 22.5849
ltoes -28.3055
191
root 17.3378 16.0007 0.387279 -195.428 -87.07 199.398
lowerback -9.66494 0.0652284 1.15619
upperback 2.17119 -0.0494106 -0.116984
thorax 7.72638 0.0322683 -0.782859
lowerneck -4.59456 0.688207 -3.03631
upperneck 13.2492 0.890707 1.2775
head 4.7053 0.297275 0.935537
rclavicle -6.36732e-015 -6.95746e-016
rhumerus -28.8983 3.41522 -85.7409
rradius 42.6724
rwrist 4.43984
rhand -32.9289 -38.5714
rfingers 7.12502
rthumb -6.14561 -68.4622
lclavicle -6.36732e-015 -6.95746e-016
lhumerus -28.2441 0.753487 80.6634
lradius 43.7658
lwrist -12.4503
lhand -40.8843 -40.1873
lfingers 7.12502
lthumb -13.8202 -10.6664
rfemur -20.0844 8.63174 11.3661
rtibia 42.2587
rfoot -29.5586 -21.4898
rtoes -4.53215
lfemur -18.1089 -1.72141 -8.51841
ltibia 41.0117
lfoot -33.7215 22.6047
ltoes -28.3182
192
root 17.3381 16.0011 0.386519 -194.512 -87.0478 198.482
lowerback -9.66781 0.066588 1.1316
upperback 2.1737 -0.0441051 -0.122869
thorax 7.73082 0.0339139 -0.774365
lowerneck -4.58622 0.693477 -3.05365
upperneck 13.2638 0.895607 1.30023
head 4.70804 0.299781 0.945679
rclavicle 8.86455e-015 6.16232e-015
rhumerus -28.9397 3.46422 -85.7294
rradius 42.7348
rwrist 4.37585
rhand -33.0235 -38.6843
rfingers 7.12502
rthumb -6.23692 -68.5725
lclavicle 8.86455e-015 6.16232e-015
lhumerus -28.2477 0.753291 80.6654
lradius 43.7679
lwrist -12.3796
lhand -40.8198 -40.215
lfingers 7.12502
lthumb -13.7579 -10.6899
rfemur -20.1033 8.63658 11.3215
rtibia 42.2685
rfoot -29.5518 -21.4611
rtoes -4.52369
lfemur -18.0889 -1.71071 -8.56009
ltibia 40.9966
lfoot -33.7394 22.6254
ltoes -28.2789
193
root 17.3385 16.0015 0.385996 -193.567 -87.0244 197.534
lowerback -9.67117 0.06985 1.1132
upperback 2.18045 -0.0364723 -0.136618
thorax 7.74015 0.0372314 -0.777293
lowerneck -4.58036 0.691564 -3.07597
upperneck 13.271 0.889321 1.34085
head 4.70903 0.297807 0.961551
rclavicle 4.78947e-015 -2.5842e-015
rhumerus -28.9803 3.49735 -85.7268
rradius 42.8002
rwrist 4.31402
rhand -33.0977 -38.7211
rfingers 7.12502
rthumb -6.30855 -68.6072
lclavicle 4.78947e-015 -2.5842e-015
lhumerus -28.2453 0.757782 80.6568
lradius 43.7678
lwrist -12.3366
lhand -40.7711 -40.2199
lfingers 7.12502
lthumb -13.7111 -10.6916
rfemur -20.1226 8.62733 11.2729
rtibia 42.2826
rfoot -29.5357 -21.4221
rtoes -4.56509
lfemur -18.0614 -1.70564 -8.60634
ltibia 40.9776
lfoot -33.7691 22.6368
ltoes -28.1828
194
root 17.3389 16.0015 0.385151 -192.893 -86.9912 196.853
lowerback -9.67667 0.0762098 1.10708
upperback 2.19543 -0.0262948 -0.150694
thorax 7.7596 0.0424593 -0.787087
lowerneck -4.58122 0.686379 -3.09897
upperneck 13.2673 0.877944 1.3926
head 4.70783 0.294265 0.980687
rclavicle -3.2054e-015 -1.98785e-015
rhumerus -28.9985 3.5143 -85.7314
rradius 42.8491
rwrist 4.2594
rhand -33.1086 -38.7346
rfingers 7.12502
rthumb -6.31903 -68.6203
lclavicle -3.2054e-015 -1.98785e-015
lhumerus -28.23 0.763785 80.6394
lradius 43.766
lwrist -12.328
lhand -40.7578 -40.1783
lfingers 7.12502
lthumb -13.6982 -10.6491
rfemur -20.139 8.65551 11.2456
rtibia 42.3001
rfoot -29.5226 -21.4111
rtoes -4.60866
lfemur -18.0284 -1.70142 -8.63418
ltibia 40.9574
lfoot -33.8029 22.639
ltoes -28.0651
195
root 17.3396 16.0012 0.384263 -192.425 -86.9592 196.373
lowerback -9.68012 0.0804388 1.10658
upperback 2.21389 -0.019752 -0.163674
thorax 7.78156 0.0461759 -0.799485
lowerneck -4.58342 0.680704 -3.10548
upperneck 13.2553 0.866692 1.42871
head 4.70451 0.290835 0.992264
rclavicle -6.33626e-016 2.78299e-015
rhumerus -28.9934 3.52252 -85.7387
rradius 42.8738
rwrist 4.21806
rhand -33.0205 -38.8311
rfingers 7.12502
rthumb -6.23402 -68.7194
lclavicle -6.33626e-016 2.78299e-015
lhumerus -28.2067 0.774835 80.6169
lradius 43.7613
lwrist -12.3498
lhand -40.7787 -40.0916
lfingers 7.12502
lthumb -13.7184 -10.5638
rfemur -20.1517 8.69348 11.231
rtibia 42.3192
rfoot -29.5096 -21.4139
rtoes -4.64779
lfemur -17.9951 -1.70051 -8.65092
ltibia 40.9385
lfoot -33.8387 22.6336
ltoes -27.9671
196
root 17.3403 16.0007 0.382751 -192.461 -86.9092 196.391
lowerback -9.67478 0.0863797 1.11658
upperback 2.23333 -0.0129531 -0.166049
thorax 7.79951 0.0502068 -0.806539
lowerneck -4.5698 0.674187 -3.07815
upperneck 13.2228 0.855587 1.42858
head 4.69259 0.287206 0.986929
rclavicle -1.6027e-015 -2.08724e-015
rhumerus -28.9694 3.52727 -85.7503
rradius 42.8703
rwrist 4.19324
rhand -32.8406 -39.0463
rfingers 7.12502
rthumb -6.06037 -68.9396
lclavicle -1.6027e-015 -2.08724e-015
lhumerus -28.18 0.791941 80.5887
lradius 43.752
lwrist -12.3926
lhand -40.8146 -39.9887
lfingers 7.12502
lthumb -13.7529 -10.4632
rfemur -20.1584 8.79359 11.2573
rtibia 42.3381
rfoot -29.5109 -21.46
rtoes -4.6537
lfemur -17.9546 -1.69836 -8.63063
ltibia 40.9222
lfoot -33.8763 22.6349
ltoes -27.9154
197
root 17.3413 16.0001 0.381823 -192.553 -86.867 196.463
lowerback -9.6567 0.0888774 1.13172
upperback 2.24703 -0.0110812 -0.170207
thorax 7.80385 0.0520161 -0.819146
lowerneck -4.52826 0.666295 -3.01578
upperneck 13.1668 0.843128 1.39348
head 4.66914 0.282704 0.964736
rclavicle 4.42296e-015 -4.47266e-015
rhumerus -28.9375 3.52611 -85.7645
rradius 42.8439
rwrist 4.18654
rhand -32.6093 -39.3716
rfingers 7.12502
rthumb -5.837 -69.2712
lclavicle 4.42296e-015 -4.47266e-015
lhumerus -28.1494 0.809442 80.5588
lradius 43.7313
lwrist -12.4439
lhand -40.8469 -39.914
lfingers 7.12502
lthumb -13.7841 -10.3907
rfemur -20.1635 8.84461 11.2808
rtibia 42.3556
rfoot -29.5014 -21.4794
rtoes -4.68388
lfemur -17.9179 -1.69955 -8.61231
ltibia 40.9081
lfoot -33.8979 22.6522
ltoes -27.9338
198
root 17.3423 15.9996 0.381021 -192.66 -86.8242 196.553
lowerback -9.62767 0.0916096 1.14521
upperback 2.25081 -0.00854786 -0.173554
thorax 7.79123 0.0539018 -0.829825
lowerneck -4.45765 0.6568 -2.93919
upperneck 13.099 0.827781 1.34532
head 4.63738 0.276619 0.935854
rclavicle -1.45361e-015 -4.87022e-015
rhumerus -28.9231 3.51466 -85.7785
rradius 42.8185
rwrist 4.20004
rhand -32.3856 -39.7135
rfingers 7.12502
rthumb -5.62101 -69.6189
lclavicle -1.45361e-015 -4.87022e-015
lhumerus -28.1228 0.820115 80.5311
lradius 43.6961
lwrist -12.4966
lhand -40.8647 -39.9001
lfingers 7.12502
lthumb -13.8013 -10.3779
rfemur -20.1702 8.88755 11.3045
rtibia 42.3709
rfoot -29.4988 -21.4906
rtoes -4.69697
lfemur -17.8843 -1.70118 -8.59404
ltibia 40.8956
lfoot -33.9085 22.6829
ltoes -27.9772
